<?xml version="1.0" encoding="UTF-8"?>
<svg width="427px" height="512px" viewBox="0 0 427 512" version="1.1" xmlns="http://www.w3.org/2000/svg" xmlns:xlink="http://www.w3.org/1999/xlink">
    <title>Untitled</title>
    <g id="Page-1" stroke="none" stroke-width="1" fill="none" fill-rule="evenodd">
        <g id="history_active" fill="#2071C1" fill-rule="nonzero">
            <path d="M320,266.666667 C320,284.339779 305.673112,298.666667 288,298.666667 L138.666667,298.666667 C120.993555,298.666667 106.666667,284.339779 106.666667,266.666667 C106.666667,248.993555 120.993555,234.666667 138.666667,234.666667 L288,234.666667 C305.673112,234.666667 320,248.993555 320,266.666667 L320,266.666667 Z M224,341.333333 L138.666667,341.333333 C120.993555,341.333333 106.666667,355.660221 106.666667,373.333333 C106.666667,391.006445 120.993555,405.333333 138.666667,405.333333 L224,405.333333 C241.673112,405.333333 256,391.006445 256,373.333333 C256,355.660221 241.673112,341.333333 224,341.333333 Z M426.667092,174.016 L426.667092,394.666667 C426.596121,459.438834 374.105501,511.929455 309.333333,512 L117.333333,512 C52.561166,511.929455 0.0705451715,459.438834 -5.68434189e-14,394.666667 L-5.68434189e-14,117.333333 C0.0705451715,52.561166 52.561166,0.0705451715 117.333333,-0.00047448242 L252.650667,-0.00047448242 C283.786817,-0.0887909858 313.663398,12.2874426 335.616,34.368 L392.298667,91.0506667 C414.375192,113.005971 426.750696,142.88079 426.667092,174.016 L426.667092,174.016 Z M362.666667,394.666667 L362.666667,192 L277.333333,192 C253.769184,192 234.666667,172.897483 234.666667,149.333333 L234.666667,64 L117.333333,64 C87.8781467,64 64,87.8781467 64,117.333333 L64,394.666667 C64,424.121853 87.8781467,448 117.333333,448 L309.333333,448 C338.78852,448 362.666667,424.121853 362.666667,394.666667 Z" id="Shape"></path>
        </g>
    </g>
</svg>