<?xml version="1.0" encoding="UTF-8"?>
<svg width="513px" height="512px" viewBox="0 0 513 512" version="1.1" xmlns="http://www.w3.org/2000/svg" xmlns:xlink="http://www.w3.org/1999/xlink">
    <title>Untitled</title>
    <g id="Page-1" stroke="none" stroke-width="1" fill="none" fill-rule="evenodd">
        <g id="my_order" fill="#2071C1" fill-rule="nonzero">
            <circle id="Oval" cx="149.333333" cy="469.333333" r="42.6666667"></circle>
            <circle id="Oval" cx="362.666667" cy="469.333333" r="42.6666667"></circle>
            <path d="M490.325333,128.384 C475.308097,114.024397 455.204819,106.213277 434.432,106.666667 L120.618667,106.666667 L115.008,62.6773333 C110.791172,26.9416497 80.5062823,0.011563411 44.5226667,0 L32,0 C14.326888,0 0,14.326888 0,32 L0,32 C0,49.673112 14.326888,64 32,64 L44.5226667,64 C48.1373065,64.038736 51.1389902,66.8010216 51.4773333,70.4 L83.4773333,321.258667 C87.6551124,357.024488 117.953671,383.99424 153.962667,384 L369.898667,384 C422.695511,383.969003 468.969377,348.678632 482.965333,297.770667 L509.546667,201.109333 C516.761822,175.175322 509.411926,147.366449 490.325333,128.384 Z M421.333333,280.810667 C414.914375,303.928452 393.891003,319.946674 369.898667,320 L153.962667,320 C150.34841,319.970114 147.347803,317.200323 147.029333,313.6 L128.789333,170.666367 L437.632,170.666367 C440.972218,170.641664 444.131271,172.182823 446.16749,174.830746 C448.20371,177.478669 448.881936,180.927552 448,184.149333 L421.333333,280.810667 Z" id="Shape"></path>
        </g>
    </g>
</svg>