<?xml version="1.0" encoding="UTF-8"?>
<svg width="342px" height="512px" viewBox="0 0 342 512" version="1.1" xmlns="http://www.w3.org/2000/svg" xmlns:xlink="http://www.w3.org/1999/xlink">
    <title>Untitled</title>
    <g id="Page-1" stroke="none" stroke-width="1" fill="none" fill-rule="evenodd">
        <g id="user" fill="#000000" fill-rule="nonzero">
            <path d="M159.317,299.051 C68.4,307.269 -0.866,384.092 0.341,475.371 L0.341,480 C0.341,497.673 14.668,512 32.341,512 L32.341,512 C50.014,512 64.341,497.673 64.341,480 L64.341,474.091 C63.379,418.046 104.739,370.253 160.341,363.158 C219.034,357.338 271.333,400.2 277.153,458.893 C277.497,462.363 277.671,465.847 277.674,469.334 L277.674,480 C277.674,497.673 292.001,512 309.674,512 L309.674,512 C327.347,512 341.674,497.673 341.674,480 L341.674,469.333 C341.57,374.97 264.989,298.559 170.627,298.662894 C166.854,298.668 163.082,298.797 159.317,299.051 Z" id="Path"></path>
            <path d="M171.008,256 C241.7,256 299.008,198.692 299.008,128 C299.008,57.308 241.7,0 171.008,0 C100.316,0 43.008,57.308 43.008,128 C43.078,198.663 100.345,255.929 171.008,256 Z M171.008,64 C206.354,64 235.008,92.654 235.008,128 C235.008,163.346 206.354,192 171.008,192 C135.662,192 107.008,163.346 107.008,128 C107.008,92.654 135.662,64 171.008,64 Z" id="Shape"></path>
        </g>
    </g>
</svg>